PathFileType	4	(X/Y/Z)	C:/Users/beibeiliu/ov580/test_trc\sequence.23_training_dense_right.trc
DataRate	CameraRate	NumFrames	NumMarkers	Units	OrigDataRate	OrigDataStartFrame	OrigNumFrames
120	120	22	19	mm	120	253	289
Frame#	Time	ThumbCMC			ThumbMCP			ThumbIP			ThumbTip			IndexMCP			IndexPIP			IndexTip			MiddleMCP			MiddlePIP			MiddleTip			RingMCP			RingPIP			RingTip			PinkyMCP			PinkyPIP			PinkyTip			BackHand1			BackHand2			BackHand3	
		X0	Y0	Z0	X1	Y1	Z1	X2	Y2	Z2	X3	Y3	Z3	X4	Y4	Z4	X5	Y5	Z5	X6	Y6	Z6	X7	Y7	Z7	X8	Y8	Z8	X9	Y9	Z9	X10	Y10	Z10	X11	Y11	Z11	X12	Y12	Z12	X13	Y13	Z13	X14	Y14	Z14	X15	Y15	Z15	X16	Y16	Z16	X17	Y17	Z17	X18	Y18	Z18	
252	2.1	141.444	16.3149	22.5872	126.15	11.619	1.50326	115.876	9.34695	-16.3857	106.898	7.52677	-28.7882	154.904	20.0819	-43.2236	149.644	16.6477	-67.0197	145.273	15.343	-90.3381	175.004	17.0195	-49.1482	178.947	14.6016	-70.0324	179.478	13.3614	-98.691	193.275	9.52857	-40.6314	199.384	7.7138	-61.071	200.628	6.36649	-83.5847	207.62	2.11212	-28.3202	217.416	-2.076	-41.8292	225.99	-0.275114	-57.2189	193.978	22.7081	2.63153	195.019	25.6146	27.4537	169.551	31.2268	10.8625	
253	2.10833	141.259	15.2361	21.3722	128.619	7.64116	5.95827	113.598	8.74583	-17.4204	101.606	8.60623	-27.3609	149.766	19.7891	-42.4989	147.104	17.2269	-65.053	144.083	15.8942	-84.8659	172.444	16.2292	-48.1385	178.358	14.4504	-73.117	178.819	14.5798	-97.4284	194.709	8.4127	-41.083	196.383	5.82931	-60.0389	198.942	5.52003	-82.4854	210.175	-1.01687	-26.1007	214.401	-3.0871	-40.6301	224.259	-1.84671	-57.1109	192.337	19.024	1.83706	190.611	26.7109	27.6662	168.935	30.2217	12.3327	
254	2.11667	142.974	11.7313	24.8264	128.57	5.492	4.5209	116.58	6.51535	-14.6035	105.61	6.55651	-30.4129	151.904	18.1215	-45.2602	149.497	15.0812	-63.3367	142.57	15.2684	-89.6873	172.209	15.2999	-46.8628	176.129	14.0806	-71.8005	180.214	13.1153	-98.1679	192.802	7.26328	-40.9941	195.325	5.88857	-62.1761	198.329	3.64253	-83.9751	211.425	-1.92112	-26.1706	212.552	-4.55116	-46.1138	220.084	-5.61737	-59.1829	193.72	18.6143	4.95701	188.99	24.711	25.8674	165.584	28.1989	14.047	
255	2.125	140.587	10.081	26.8408	125.61	5.7416	3.36385	111.719	5.36405	-14.3427	100.052	5.7164	-29.1853	150.129	16.5503	-40.4472	146.688	15.452	-64.6095	143.886	14.5281	-89.7151	173.482	14.2007	-48.4904	177.127	12.9344	-70.4202	180.235	12.5055	-92.7947	191.779	5.35981	-38.068	196.825	4.1353	-64.3492	197.432	2.09027	-81.5365	211.105	-3.1336	-25.7002	214.602	-6.76397	-43.2707	219.768	-6.06139	-58.2635	191.082	16.1946	2.06359	189.769	22.3002	30.2589	163.197	25.1614	12.6302	
256	2.13333	142.009	8.10929	22.1477	126.477	1.78032	3.85563	114.205	2.41924	-14.8634	104.546	1.24819	-27.7871	151.775	14.0877	-43.1989	146.978	14.2829	-63.2004	145.302	12.3419	-87.255	176.11	12.5418	-45.3417	179.018	11.8486	-70.1168	180.086	12.7233	-95.6606	189.621	5.45738	-43.141	198.6	1.76488	-60.8263	198.758	2.07518	-80.8871	211.459	-4.0252	-28.7067	214.096	-7.47465	-45.2573	222.058	-5.88745	-55.9057	188.057	16.1496	3.44968	188.116	21.639	27.275	166.866	24.4439	14.9171	
257	2.14167	139.183	4.97934	25.4959	128.268	-1.63241	4.74348	113.168	-1.90173	-12.3385	103.809	-1.24563	-29.7337	148.443	12.6735	-43.9552	150.636	11.0368	-68.525	146.969	9.37202	-88.5644	172.588	12.684	-47.9999	177.276	11.0627	-69.5026	182.843	10.808	-95.7719	190.729	4.49034	-41.3759	198.178	1.77484	-62.581	199.432	1.49223	-81.2833	211.049	-5.57677	-26.506	216.354	-8.26545	-40.7568	227.297	-5.58637	-57.8445	189.976	13.0034	1.05935	189.44	19.1293	27.2427	165.218	20.7194	14.8323	
258	2.15	141.547	0.358387	25.5498	123.225	-2.95739	3.94053	113.592	-4.17816	-13.7123	101.75	-4.75655	-30.6564	152.45	10.7116	-41.9177	150.88	9.19319	-68.5631	149.742	5.71277	-86.9259	177.427	9.33171	-46.803	177.194	10.5755	-73.3747	183.796	8.65779	-96.9562	197.074	2.49483	-42.0015	199.622	2.01321	-62.7751	203.727	-0.444233	-84.2795	209.291	-6.57581	-23.489	221.674	-8.72335	-40.2821	227.845	-4.49292	-57.4436	189.389	12.932	3.49289	192.279	14.5013	27.1223	163.554	19.5373	13.1333	
259	2.15833	141.05	-0.589159	24.5196	127.699	-6.12551	3.11657	115.717	-6.10195	-14.36	103.505	-7.63044	-28.3738	149.288	8.90925	-44.3345	148.294	6.42703	-67.0527	145.981	3.47052	-90.7134	178.012	7.43208	-50.0734	175.743	7.71498	-72.0447	185.477	7.02333	-93.4132	192.535	1.74836	-38.9669	199.612	-0.798375	-58.538	201.363	-1.12097	-80.9121	214.399	-6.96261	-25.0196	222.068	-8.62964	-42.2973	228.903	-4.13481	-53.7139	192.291	10.5338	1.35279	192.589	11.3322	30.571	161.897	15.896	15.7121	
260	2.16667	140.424	-3.53157	26.1869	128.162	-9.03905	7.4165	113.658	-7.86483	-12.6258	100.911	-8.73727	-28.1312	153.706	5.94541	-44.7393	152.492	4.26251	-64.9443	147.454	-0.118551	-90.219	176.236	4.86473	-44.9202	178.123	5.70154	-69.614	182.745	5.00391	-94.1943	193.379	-1.12374	-40.0531	198.584	-1.37693	-61.4879	203.311	-2.54155	-81.9491	214.954	-9.17195	-25.2854	221.248	-11.0424	-38.5943	230.265	-7.49647	-52.4399	192.149	6.13686	5.81567	190.371	9.84097	30.5663	165.821	14.6092	11.9708	
261	2.175	144.465	-5.08843	26.888	128.215	-9.66839	3.91776	117.194	-9.60727	-17.0604	107.37	-11.0636	-32.4445	153.359	3.67939	-42.1618	148.274	3.02343	-62.9373	149.295	-2.28108	-87.4813	175.484	3.59044	-47.9398	180.972	1.70514	-69.9902	182.985	2.6301	-96.4641	196.109	-3.02511	-40.5765	201.92	-4.79056	-58.0925	203.713	-5.22861	-82.7226	211.774	-12.1218	-21.3664	222.541	-13.3046	-37.9972	229.381	-8.55386	-56.6768	192.86	5.52483	3.74141	188.759	8.46688	29.8665	165.709	11.2638	14.6042	
262	2.18333	144.205	-5.56809	23.8902	129.24	-13.0494	8.39525	115.579	-11.8009	-11.459	106.469	-13.6162	-28.4459	153.729	2.00877	-44.3954	154.148	-0.28051	-64.3394	152.01	-3.18282	-87.6554	180.356	0.109014	-47.1123	182.459	0.429144	-72.0909	186.077	-0.350197	-93.718	197.2	-5.35745	-37.4815	201.337	-6.74128	-61.0454	208.245	-7.72736	-81.6169	214.845	-14.1186	-23.2564	222.113	-14.8778	-37.6856	230.876	-12.5302	-51.2733	196.431	2.85753	7.22179	193.646	9.15359	29.8065	168.471	11.5136	11.8054	
263	2.19167	146.487	-6.41563	22.768	131.191	-12.1501	5.92057	119.33	-11.7847	-16.5219	107.342	-13.3051	-29.0139	154.826	1.67202	-43.453	151.157	0.0436558	-65.2613	150.916	-3.49023	-84.6177	181.499	-0.584956	-44.8693	183.055	-1.1312	-68.1017	184.368	-0.345317	-94.7999	198.52	-5.22366	-38.4529	206.361	-7.35105	-58.6564	210.156	-9.3063	-78.3	217.023	-14.5345	-21.3095	224.316	-16.9694	-38.2855	231.94	-11.7086	-51.9236	195.449	3.2769	6.12039	194.097	8.81786	30.5886	168.847	8.68752	15.3732	
264	2.2	146.214	-6.22157	27.669	134.565	-12.6666	7.76849	121.287	-11.6425	-16.3467	113.007	-14.7274	-29.2319	158.404	1.1293	-44.2594	153.663	-1.08632	-63.6535	155.758	-5.34682	-85.6109	183.835	-0.576843	-46.4977	186.354	-0.794391	-69.7875	189.482	-1.42299	-96.5302	203.23	-6.14615	-36.5434	204.603	-7.27996	-60.0159	212.363	-10.0405	-82.3509	217.02	-14.3954	-22.411	225.416	-15.9125	-38.7691	234.343	-12.3804	-56.2058	200.532	2.42093	7.06348	195.254	7.4017	28.0691	171.253	9.21831	14.9392	
265	2.20833	153.246	-5.20852	23.6143	135.966	-10.1808	4.82967	122.851	-10.0613	-16.4156	111.493	-12.1227	-31.6433	163.17	1.20476	-42.5847	159.101	-0.486264	-64.0515	157.257	-4.75683	-88.0387	185.72	-0.183105	-49.2664	187.258	-2.24953	-69.1324	193.616	-3.30439	-94.0004	203.756	-6.87812	-38.8712	211.072	-7.71999	-61.421	212.173	-9.93155	-77.8832	224.185	-14.8147	-22.9716	226.844	-16.165	-35.6351	239.503	-14.8809	-52.8817	202.755	1.23498	1.98854	198.974	8.48569	31.8296	173.715	10.8854	13.8358	
266	2.21667	152.103	-4.28734	23.157	139.77	-11.2476	6.05431	129.457	-10.9896	-13.9325	112.941	-12.4607	-30.9673	166.386	1.22448	-39.3073	160.516	-0.873139	-66.6553	161.187	-4.72931	-86.9527	189.235	-0.957042	-48.731	189.264	-1.21722	-71.0905	190.716	-2.19178	-94.3008	204.414	-5.86764	-38.8594	213.863	-9.33084	-56.9445	215.564	-10.2721	-80.4577	221.291	-14.3132	-20.555	233.585	-16.9278	-35.4274	239.002	-11.2936	-54.3184	204.893	3.36188	4.46076	202.392	6.51322	27.2296	178.579	9.11777	15.1276	
267	2.225	158.292	-5.4656	26.9907	141.703	-10.0717	5.13598	129.744	-11.0221	-13.9341	118.239	-13.4349	-29.6646	163.073	1.52512	-40.3312	166.085	-1.11869	-63.5675	164.11	-5.19516	-90.712	188.292	-0.0753562	-47.7831	192.811	-2.29741	-70.6148	195.366	-2.29579	-93.3513	208.644	-5.46561	-38.7284	211.502	-7.78924	-60.5517	215.869	-9.14236	-82.8998	224.371	-14.6948	-21.3967	234.448	-16.9149	-34.8362	243.621	-13.2039	-54.2085	207.11	3.69929	2.08531	204.827	9.3629	27.9888	179.107	10.6068	11.5413	
268	2.23333	156.871	-3.71228	28.5751	139.368	-9.08631	5.62416	131.736	-11.0746	-11.0644	117.612	-10.751	-30.1892	169.605	2.3721	-43.8495	164.058	-0.757525	-65.8051	163.702	-4.3846	-87.3197	192.619	-0.545327	-46.9498	192.113	-1.75836	-68.0539	201.345	-3.06973	-95.2129	209.573	-5.03394	-39.5922	213.292	-7.82021	-60.4978	216.964	-9.91792	-80.0476	228.735	-14.7914	-20.6968	237.174	-16.3177	-38.7466	248.197	-13.0939	-51.6788	206.976	3.27776	2.68347	207.917	6.75279	31.2952	179.368	11.1803	17.377	
269	2.24167	161.741	-4.85545	25.4499	144.302	-8.62624	5.98734	132.041	-10.1902	-12.5917	120.766	-11.2738	-28.666	167.515	2.15973	-40.6868	168.978	-0.600345	-65.8274	168.778	-3.94435	-84.9583	191.178	-0.310939	-44.2988	197.819	-2.40397	-70.1772	203.106	-3.44746	-94.5499	212.954	-6.25967	-35.0417	215.633	-8.46201	-56.466	219.159	-10.5521	-76.8227	232.467	-15.6821	-20.3594	238.458	-18.093	-36.9142	249.131	-15.6548	-51.2899	208.922	4.70077	3.82715	207.727	9.20028	28.3963	181.029	11.9498	15.63	
270	2.25	158.061	-2.34139	26.3592	142.505	-8.65598	9.11893	135.659	-10.6846	-9.86403	125.332	-11.7858	-28.527	172.052	2.13331	-40.5932	170.934	-1.183	-65.0009	168.858	-3.18118	-84.3779	192.012	-0.0525433	-45.2813	197.174	-2.83887	-67.0842	198.081	-3.12078	-95.0743	213.476	-6.86604	-37.2581	216.27	-8.83613	-61.0521	220.968	-9.99445	-81.0418	231.634	-14.8638	-19.0948	239.228	-18.6392	-34.2511	245.238	-15.4361	-52.4445	209.036	3.03705	8.21035	206.48	10.3743	32.7592	184.116	13.5559	18.5369	
271	2.25833	159.39	-3.44497	28.0713	142.72	-8.92688	8.58259	132.207	-10.1198	-9.77766	124.821	-10.3972	-28.7435	170.475	1.08964	-38.9267	168.558	-1.10353	-62.5257	168.8	-4.51192	-87.9203	193.562	-1.14379	-43.9059	198.197	-3.288	-66.16	201.021	-5.44161	-90.4763	213.449	-6.82878	-34.3962	220.921	-10.3835	-57.9677	221.697	-10.7948	-77.8298	230.04	-14.4924	-19.6543	240.661	-18.0579	-37.144	246.183	-13.3528	-50.992	209.082	5.67022	4.40573	211.497	7.23016	34.6642	183.213	13.8842	17.7283	
272	2.26667	161.132	-3.77432	25.7506	147.119	-9.5353	7.31048	136.901	-9.91908	-12.9223	125.353	-12.0286	-25.9125	169.505	0.948738	-37.057	171.148	-1.53498	-61.3961	167.721	-4.12906	-82.3285	198.024	-1.57332	-45.1236	198.517	-4.09208	-67.7418	201.315	-6.74628	-94.8227	212.283	-7.08181	-33.322	221.592	-10.1703	-58.1678	221.48	-12.2927	-75.6229	233.458	-16.2466	-21.3094	242.048	-18.7258	-35.9387	250.612	-16.2852	-51.1708	209.422	2.35592	6.56785	210.589	9.36075	31.8577	188.683	11.4251	18.1822	
273	2.275	161.536	-3.72523	29.2251	148.692	-9.69893	6.50192	134.247	-11.894	-8.6686	122.228	-11.7275	-25.4244	172.07	0.814289	-36.7085	169.267	-1.98451	-59.2997	169.532	-6.48469	-82.0205	197.812	-2.30099	-41.9576	198.001	-5.19068	-68.765	200.399	-7.67852	-90.2106	215.822	-9.45168	-35.8685	220.724	-12.3154	-56.5522	220.521	-12.9341	-78.751	233.606	-17.4729	-17.2803	237.311	-18.1439	-34.1422	247.172	-16.3948	-47.6842	209.047	3.94881	10.3634	209.819	6.34355	30.8482	187.532	10.8314	14.8103	
